<svg xmlns="http://www.w3.org/2000/svg" version="1.1" xmlns:xlink="http://www.w3.org/1999/xlink" width="512"
    height="512" x="0" y="0" viewBox="0 0 512 512" style="enable-background:new 0 0 512 512" xml:space="preserve"
    class="">
    <g>
        <circle cx="126.264" cy="126.264" r="105.264" fill="#8bb9c0" transform="rotate(-45 126.25 126.296)" opacity="1"
            data-original="#3bbe60" class=""></circle>
        <path fill="#c7a4d1" fill-rule="evenodd"
            d="M385.736 21C443.872 21 491 68.127 491 126.264s-47.128 105.264-105.264 105.264c-6.522 0-12.906-.594-19.1-1.73-33.343-6.115-64.78 3.678-88.75 27.648l-20.439 20.439c-23.971 23.971-33.764 55.408-27.648 88.751a105.802 105.802 0 0 1 1.73 19.099c0 58.136-47.128 105.264-105.264 105.264S21.001 443.871 21.001 385.735s47.128-105.264 105.264-105.264c6.523 0 12.906.594 19.101 1.73 33.343 6.115 64.78-3.678 88.75-27.649l20.439-20.439c23.971-23.971 33.764-55.408 27.648-88.751a105.802 105.802 0 0 1-1.73-19.099c0-58.136 47.128-105.264 105.264-105.264z"
            opacity="1" data-original="#426fff" class=""></path>
        <circle cx="385.736" cy="385.736" r="105.264" fill="#8b8cc0" transform="rotate(-13.34 384.916 385.642)"
            opacity="1" data-original="#ed2f2f" class=""></circle>
        <g fill="#edeff3" fill-rule="evenodd">
            <path
                d="M116.264 87.201c0-5.523 4.477-10 10-10s10 4.477 10 10v29.063h29.063c5.523 0 10 4.477 10 10s-4.477 10-10 10h-29.063v29.063c0 5.523-4.477 10-10 10s-10-4.477-10-10v-29.063H87.201c-5.523 0-10-4.477-10-10s4.477-10 10-10h29.063zM406.288 91.573c3.905-3.905 10.236-3.905 14.14 0 3.905 3.905 3.905 10.236 0 14.14l-20.552 20.552 20.552 20.551c3.905 3.905 3.905 10.236 0 14.14-3.905 3.905-10.236 3.905-14.14 0l-20.552-20.551-20.552 20.552c-3.905 3.905-10.236 3.905-14.14 0s-3.905-10.236 0-14.14l20.552-20.552-20.552-20.552c-3.905-3.905-3.905-10.236 0-14.14 3.905-3.905 10.236-3.905 14.14 0l20.552 20.552zM165.327 375.736c5.523 0 10 4.477 10 10s-4.477 10-10 10H87.201c-5.523 0-10-4.477-10-10s4.477-10 10-10h78.127zM424.799 403.149c5.523 0 10 4.477 10 10s-4.477 10-10 10h-78.126c-5.523 0-10-4.477-10-10s4.477-10 10-10zm0-54.827c5.523 0 10 4.477 10 10s-4.477 10-10 10h-78.126c-5.523 0-10-4.477-10-10s4.477-10 10-10z"
                fill="#edeff3" opacity="1" data-original="#edeff3" class=""></path>
        </g>
    </g>
</svg>